<?xml version="1.0" encoding="UTF-8" standalone="no"?> <svg xmlns="http://www.w3.org/2000/svg" width="24" height="24" viewBox="0 0 24 24">
  <path fill-rule="evenodd" d="M13.763932,3 C14.9002482,3 15.9390376,3.64200713 16.4472136,4.65835921 L17.3416408,6.4472136 C17.5110328,6.78599762 17.8572959,7 18.236068,7 L19,7 C20.6568542,7 22,8.34314575 22,10 L22,18 C22,19.6568542 20.6568542,21 19,21 L5,21 C3.34314575,21 2,19.6568542 2,18 L2,10 C2,8.34314575 3.34314575,7 5,7 L5.76393202,7 C6.14270408,7 6.4889672,6.78599762 6.65835921,6.4472136 L7.5527864,4.65835921 C8.06096245,3.64200713 9.0997518,3 10.236068,3 L13.763932,3 Z M13.763932,5 L10.236068,5 C9.85729592,5 9.5110328,5.21400238 9.34164079,5.5527864 L8.4472136,7.34164079 C7.93903755,8.35799287 6.9002482,9 5.76393202,9 L5,9 C4.44771525,9 4,9.44771525 4,10 L4,18 C4,18.5522847 4.44771525,19 5,19 L19,19 C19.5522847,19 20,18.5522847 20,18 L20,10 C20,9.44771525 19.5522847,9 19,9 L18.236068,9 C17.0997518,9 16.0609624,8.35799287 15.5527864,7.34164079 L14.6583592,5.5527864 C14.4889672,5.21400238 14.1427041,5 13.763932,5 Z M12,9 C14.209139,9 16,10.790861 16,13 C16,15.209139 14.209139,17 12,17 C9.790861,17 8,15.209139 8,13 C8,10.790861 9.790861,9 12,9 Z M12,11 C10.8954305,11 10,11.8954305 10,13 C10,14.1045695 10.8954305,15 12,15 C13.1045695,15 14,14.1045695 14,13 C14,11.8954305 13.1045695,11 12,11 Z"/>
</svg>
