<?xml version="1.0" encoding="UTF-8"?>
<svg width="128px" height="32px" viewBox="0 0 128 32" version="1.1" xmlns="http://www.w3.org/2000/svg" xmlns:xlink="http://www.w3.org/1999/xlink">
    <!-- Generator: Sketch 64 (93537) - https://sketch.com -->
    <title>Group</title>
    <desc>Created with Sketch.</desc>
    <g id="Page-1" stroke="none" stroke-width="1" fill="none" fill-rule="evenodd">
        <g id="Group" fill-rule="nonzero">
            <path d="M60.1212121,8.89212121 C67.4618182,8.89212121 70.6909091,14.9042424 70.6909091,19.4521212 C70.7316759,20.2424653 70.4409577,21.0139987 69.888768,21.5809134 C69.3825942,22.1005852 68.6987625,22.4051483 67.9789241,22.4369274 L67.7818182,22.4387879 L55.4569697,22.4387879 C55.863002,25.0429041 58.1894339,26.9065738 60.8193939,26.7345455 C62.416048,26.7474743 63.9716461,26.2289416 65.2412121,25.2606061 C65.6713884,24.923553 66.2079803,24.7515684 66.7539394,24.7757576 C67.4044065,24.7647863 68.0309164,25.0210358 68.4872515,25.4847017 C68.9435867,25.9483675 69.1898201,26.5788812 69.1684848,27.2290909 C69.1707755,27.9310061 68.8746472,28.6008203 68.3539394,29.0715152 C66.2238497,30.8529502 63.5177922,31.797485 60.7418182,31.7284848 C54.2318181,31.7284848 49.431946,27.2464465 49.2835394,20.7057361 L49.28,20.3927273 L49.28,20.3151515 C49.28,14.0509091 53.7406061,8.89212121 60.1212121,8.89212121 Z M60.1309091,13.8860606 C57.6296787,13.8860606 55.9764388,15.6185146 55.4364457,18.2964961 L55.3890909,18.550303 L64.7563636,18.550303 C64.3878788,15.7672727 62.710303,13.8860606 60.1309091,13.8860606 Z" id="Combined-Shape" fill="#3C3C3B"></path>
            <path d="M43.2678788,0.96969697 C44.1179034,0.951891967 44.9678886,1.00704368 45.8084848,1.13454545 C47.0328512,1.33006429 47.9333278,2.38678801 47.9321212,3.62666667 C47.9323696,5.03250491 46.806802,6.1796351 45.4012121,6.20606061 L44.8678788,6.20606061 C43.4327273,6.20606061 42.6666667,6.9430303 42.6666667,8.59151515 L42.6666667,9.45454545 L45.3624242,9.45454545 C46.3057864,9.39618077 47.2035683,9.86632408 47.692909,10.6749552 C48.1822497,11.4835864 48.1822497,12.4970197 47.692909,13.3056508 C47.2035683,14.114282 46.3057864,14.5844253 45.3624242,14.5260606 L42.6666667,14.5260606 L42.6666667,28.2666667 C42.731027,29.41843 42.1531466,30.5113427 41.1650388,31.1066107 C40.1769311,31.7018788 38.9406447,31.7018788 37.9525369,31.1066107 C36.9644292,30.5113427 36.3865487,29.41843 36.4509091,28.2666667 L36.48,14.5163636 L36.2278788,14.5163636 C35.54826,14.5267858 34.8930123,14.2634093 34.4096646,13.7855335 C33.9263169,13.3076577 33.6554977,12.6554509 33.6581234,11.9757576 C33.6556037,11.292553 33.9252002,10.6364466 34.4073916,10.1524356 C34.889583,9.66842464 35.5446693,9.39635877 36.2278788,9.39636364 L36.48,9.39636364 L36.48,8.00969697 C36.48,5.59515152 37.0909091,3.83030303 38.2351515,2.68606061 C39.6095075,1.45333145 41.4266965,0.833596465 43.2678788,0.96969697 Z" id="Path" fill="#3C3C3B"></path>
            <path d="M3.15151515,2.48200444 C3.99745943,2.47698703 4.80962999,2.81397306 5.40323168,3.41670709 C5.99683338,4.01944112 6.32138131,4.83666156 6.3030303,5.68242424 L6.3030303,25.6484848 L17.9393939,25.6484848 C19.3311823,25.8923012 20.3465086,27.1009563 20.3465086,28.5139394 C20.3465086,29.9269225 19.3311823,31.1355776 17.9393939,31.379791 L3.15151515,31.379791 C2.31330055,31.3872405 1.50713329,31.057727 0.91440009,30.4649938 C0.321666893,29.8722607 -0.00784651975,29.0660934 1.38785142e-13,28.2278788 L1.38785142e-13,5.68242424 C-0.0210779934,4.83587672 0.302583356,4.0170727 0.89678018,3.41373438 C1.490977,2.81039607 2.3047445,2.47427234 3.15151515,2.48200444 Z" id="Path" fill="#3C3C3B"></path>
            <path d="M27.2581818,8.99217433 C28.8820833,8.99217433 30.2331314,10.2405513 30.3612121,11.8593939 L30.3612121,11.8593939 L30.3806147,11.8593939 L30.3806147,11.8593939 L30.3806147,28.2666667 C30.3810283,28.5660412 30.3352366,28.8636872 30.2448485,29.1490909 L30.2448485,29.1490909 L30.1821698,29.3409756 C29.8161763,30.3486698 28.9492644,31.0994426 27.8884848,31.3115152 C27.6851114,31.359091 27.4767281,31.3818829 27.2678788,31.3798752 C27.0558524,31.3813684 26.8443201,31.358588 26.6375758,31.3115152 C25.51421,31.0829465 24.6103647,30.2500643 24.2909091,29.1490909 L24.2909091,29.1490909 L24.2315051,28.932907 C24.1805133,28.7147562 24.1548341,28.4911976 24.1551429,28.2666667 L24.1551429,28.2666667 L24.1551429,11.8593939 L24.1743646,11.6810917 C24.3836841,10.1497914 25.6944248,8.99217433 27.2581818,8.99217433 Z" id="Path" fill="#3C3C3B"></path>
            <path d="M23.8739394,3.20969697 C24.3679531,1.7943764 25.7662861,0.900885669 27.2581818,1.04727273 C28.7475108,0.901967741 30.142492,1.79587812 30.6327273,3.20969697 C30.7033511,3.45230278 30.7392632,3.70368739 30.7393939,3.95636364 L30.7393939,3.95636364 L30.7393939,4.04363636 C30.7393939,5.80848485 29.2266667,6.95272727 27.2581818,6.95272727 C25.289697,6.95272727 23.7769697,5.83757576 23.7769697,4.04363636 L23.7769697,4.04363636 L23.7769697,3.95636364 C23.7786717,3.70444812 23.8112376,3.45369044 23.8739394,3.20969697 Z" id="Path" fill="#3C3C3B"></path>
            <path d="M115.316364,1.10545455 C119.796364,1.10545455 122.753939,2.12363636 125.420606,4.01454545 C126.264822,4.62078933 126.769151,5.59342403 126.778182,6.63272727 C126.76636,7.85954315 126.062354,8.97436548 124.959719,9.51233643 C123.857084,10.0503074 122.545128,9.91906449 121.570909,9.17333333 C119.7049,7.78728617 117.426525,7.06995667 115.10303,7.1369697 C110.370909,7.1369697 106.608485,11.3260606 106.608485,16.3587879 L106.608485,16.4363636 C106.608485,21.8472727 110.332121,25.8230303 115.568485,25.8230303 C117.746906,25.8892107 119.890943,25.2683899 121.69697,24.0484848 L121.69697,19.7915152 L117.333333,19.7915152 C116.585958,19.8018964 115.865612,19.5122527 115.333455,18.9873854 C114.801298,18.462518 114.501746,17.7462349 114.501818,16.9987879 C114.501818,16.2478234 114.800138,15.5276164 115.33115,14.9966043 C115.862162,14.4655922 116.582369,14.1672727 117.333333,14.1672727 L124.770909,14.1672727 C125.631578,14.1698341 126.455833,14.5148596 127.061686,15.1261701 C127.667538,15.7374806 128.005158,16.5647972 128,17.4254545 L128,24.6109091 C128.11089,26.3169628 127.22185,27.9323679 125.721212,28.7515152 C122.620574,30.6791821 119.044927,31.7065511 115.393939,31.7187879 C106.14303,31.7187879 99.8012121,25.2509091 99.8012121,16.4945455 L99.8012121,16.4072727 C99.7714859,12.3027394 101.403565,8.36077003 104.326007,5.47851189 C107.248448,2.59625375 111.212635,1.01890584 115.316364,1.10545455 Z" id="Path" fill="#E73331"></path>
            <path d="M94.3127273,3.81090909 C95.4679036,4.52030853 96.0077803,5.91331051 95.6323796,7.21590569 C95.2569789,8.51850086 94.0585667,9.41053766 92.7030303,9.39636364 C92.1212404,9.39538009 91.5509349,9.23435267 91.0545455,8.93090909 C89.1945517,7.73762423 87.0473409,7.06766767 84.8387879,6.99151515 C82.3466667,6.99151515 81.0375758,8.13575758 81.0375758,9.57090909 L81.0375758,9.65818182 C81.0375758,11.5975758 82.3078788,12.2375758 87.4181818,13.5369697 C93.4206061,15.0981818 96.8048485,17.2509091 96.8048485,22.409697 L96.8048485,22.4969697 C96.8048485,28.3733333 92.3248485,31.670303 85.9442424,31.670303 C81.9529908,31.665631 78.0634433,30.4109383 74.8218182,28.0824242 C74.0511392,27.5025082 73.5984733,26.5935837 73.5998141,25.6290909 C73.5947957,24.83025 73.9098332,24.0626192 74.474711,23.4977413 C75.0395889,22.9328635 75.8072197,22.617826 76.6060606,22.6230303 C77.2737554,22.6173499 77.9258965,22.8245406 78.4678788,23.2145455 C80.6300138,24.9127528 83.2920726,25.8500975 86.0412121,25.8812121 C88.6981818,25.8812121 90.3078788,24.8242424 90.3078788,23.0884848 L90.3078788,23.0109091 C90.3078788,21.3624242 89.3381818,20.5090909 84.3442424,19.2484848 C78.4193939,17.7260606 74.569697,16.0775758 74.569697,10.2012121 L74.569697,10.1139394 C74.569697,4.71272727 78.8848485,1.19272727 84.9260606,1.19272727 C88.2418336,1.14299881 91.5013821,2.05217038 94.3127273,3.81090909 Z" id="Path" fill="#E73331"></path>
        </g>
    </g>
</svg>